<svg width="360" height="405" version="1.1" xmlns="http://www.w3.org/2000/svg" desc="Created with imagetracer.js version 1.2.6" ><path fill="rgb(99,154,210)" stroke="rgb(99,154,210)" stroke-width="1" opacity="0.6196078431372549" d="M 171.5 0 L 176 0.5 L 165.5 3 L 152.5 11 L 153.5 9 L 171.5 0 Z " /><path fill="rgb(99,154,210)" stroke="rgb(99,154,210)" stroke-width="1" opacity="0.6196078431372549" d="M 184.5 0 L 194.5 2 L 208 10.5 L 206.5 10 L 194.5 3 L 184.5 1 L 184.5 0 Z " /><path fill="rgb(99,154,210)" stroke="rgb(99,154,210)" stroke-width="1" opacity="0.6196078431372549" d="M 150.5 11 L 149.5 13 L 133.5 22 L 134.5 20 L 150.5 11 Z " /><path fill="rgb(99,154,210)" stroke="rgb(99,154,210)" stroke-width="1" opacity="0.6196078431372549" d="M 209.5 11 L 227 21.5 L 225.5 21 L 210.5 13 L 209.5 11 Z " /><path fill="rgb(99,154,210)" stroke="rgb(99,154,210)" stroke-width="1" opacity="0.6196078431372549" d="M 131.5 22 L 130.5 24 L 126.5 26 L 127.5 24 L 131.5 22 Z " /><path fill="rgb(99,154,210)" stroke="rgb(99,154,210)" stroke-width="1" opacity="0.6196078431372549" d="M 228.5 22 L 234 25.5 L 232.5 25 Q 228.5 24.5 228.5 22 Z " /><path fill="rgb(99,154,210)" stroke="rgb(99,154,210)" stroke-width="1" opacity="0.6196078431372549" d="M 124.5 26 L 123.5 28 L 55.5 67 L 56.5 65 L 124.5 26 Z " /><path fill="rgb(99,154,210)" stroke="rgb(99,154,210)" stroke-width="1" opacity="0.6196078431372549" d="M 235.5 26 L 305 66.5 L 303.5 66 L 241.5 31 L 236.5 28 L 235.5 26 Z " /><path fill="rgb(99,154,210)" stroke="rgb(99,154,210)" stroke-width="1" opacity="0.6196078431372549" d="M 53.5 67 L 52.5 69 L 29.5 82 L 30.5 80 L 53.5 67 Z " /><path fill="rgb(99,154,210)" stroke="rgb(99,154,210)" stroke-width="1" opacity="0.6196078431372549" d="M 306.5 67 L 331 81.5 L 329.5 81 L 307.5 69 L 306.5 67 Z " /><path fill="rgb(99,154,210)" stroke="rgb(99,154,210)" stroke-width="1" opacity="0.6196078431372549" d="M 27.5 82 L 26.5 84 Q 14.3 88.3 7 97.5 Q 1.6 103.6 0.5 114 L 0 109.5 Q 4 97 13.5 90 L 27.5 82 Z " /><path fill="rgb(99,154,210)" stroke="rgb(99,154,210)" stroke-width="1" opacity="0.6196078431372549" d="M 332.5 82 L 346.5 90 L 354 97.5 L 356 100.5 L 353 98.5 L 346.5 91 L 333.5 84 L 332.5 82 Z " /><path fill="rgb(99,154,210)" stroke="rgb(99,154,210)" stroke-width="1" opacity="0.6196078431372549" d="M 0.5 291 Q 1 299 5 303.5 L 3 302.5 L 0 295.5 L 0.5 291 Z " /><path fill="rgb(100,154,209)" stroke="rgb(100,154,209)" stroke-width="1" opacity="0.996078431372549" d="M 176.5 0 L 184 0.5 L 176.5 1 L 176.5 0 Z " /><path fill="rgb(100,154,209)" stroke="rgb(100,154,209)" stroke-width="1" opacity="0.996078431372549" d="M 165.5 81 L 193.5 81 L 219.5 87 Q 251.6 98.9 272 122.5 L 284 140.5 L 283 140.5 Q 273 122.4 257.5 110 Q 238.9 94.1 212.5 86 L 191.5 82 L 168.5 82 L 147.5 86 L 119.5 98 Q 100.7 109.2 87 125.5 Q 74.6 140.1 67 159.5 L 61 180.5 L 59 207.5 L 60 208.5 L 60 218.5 L 63 233.5 L 69 250.5 L 74 260.5 L 77 263.5 L 73 260.5 L 67 248.5 L 61 230.5 L 59 220.5 L 59 212.5 L 58 211.5 L 58 193.5 L 63 167.5 L 75 140.5 Q 85.2 123.7 99.5 111 Q 112.9 98.9 130.5 91 L 146.5 85 L 165.5 81 Z " /><path fill="rgb(100,154,209)" stroke="rgb(100,154,209)" stroke-width="1" opacity="0.996078431372549" d="M 352.5 102 L 351.5 104 L 352.5 102 Z " /><path fill="rgb(100,154,209)" stroke="rgb(100,154,209)" stroke-width="1" opacity="0.996078431372549" d="M 345.5 106 L 344.5 108 L 345.5 106 Z " /><path fill="rgb(100,154,209)" stroke="rgb(100,154,209)" stroke-width="1" opacity="0.996078431372549" d="M 333.5 113 L 332.5 115 L 333.5 113 Z " /><path fill="rgb(100,154,209)" stroke="rgb(100,154,209)" stroke-width="1" opacity="0.996078431372549" d="M 0.5 114 L 1 290.5 L 0 290.5 L 0.5 114 Z " /><path fill="rgb(100,154,209)" stroke="rgb(100,154,209)" stroke-width="1" opacity="0.996078431372549" d="M 326.5 117 L 325.5 119 L 326.5 117 Z " /><path fill="rgb(100,154,209)" stroke="rgb(100,154,209)" stroke-width="1" opacity="0.996078431372549" d="M 318.5 120 Q 321.5 121.5 318.5 123 L 318.5 120 Z " /><path fill="rgb(100,154,209)" stroke="rgb(100,154,209)" stroke-width="1" opacity="0.996078431372549" d="M 307.5 128 L 306.5 130 L 307.5 128 Z " /><path fill="rgb(100,154,209)" stroke="rgb(100,154,209)" stroke-width="1" opacity="0.996078431372549" d="M 300.5 132 L 299.5 134 L 300.5 132 Z " /><path fill="rgb(100,154,209)" stroke="rgb(100,154,209)" stroke-width="1" opacity="0.996078431372549" d="M 292.5 135 Q 295.5 136.5 292.5 138 L 292.5 135 Z " /><path fill="rgb(100,154,209)" stroke="rgb(100,154,209)" stroke-width="1" opacity="0.996078431372549" d="M 173.5 143 L 186.5 143 L 204.5 148 Q 218.1 154.4 227 165.5 L 231.5 172 L 233 172.5 L 231.5 173 L 229 172 L 220.5 160 Q 206.2 144.8 177.5 144 L 176.5 145 L 168.5 145 L 158.5 148 Q 145.6 153.1 137 162.5 Q 127.3 172.8 123 188.5 L 122 210.5 Q 124.2 211.7 123 216.5 L 128.5 230 L 130 229.5 L 129.5 232 L 127 230.5 L 121 212.5 L 121 192.5 Q 126 168.5 142.5 156 L 157.5 147 L 173.5 143 Z " /><path fill="rgb(100,154,209)" stroke="rgb(100,154,209)" stroke-width="1" opacity="0.996078431372549" d="M 229.5 173 L 228.5 175 L 229.5 173 Z " /><path fill="rgb(100,154,209)" stroke="rgb(100,154,209)" stroke-width="1" opacity="0.996078431372549" d="M 222.5 177 L 221.5 179 L 222.5 177 Z " /><path fill="rgb(100,154,209)" stroke="rgb(100,154,209)" stroke-width="1" opacity="0.996078431372549" d="M 214.5 180 Q 217.5 181.5 214.5 183 L 214.5 180 Z " /><path fill="rgb(100,154,209)" stroke="rgb(100,154,209)" stroke-width="1" opacity="0.996078431372549" d="M 273.5 182 L 287 182.5 L 273.5 183 L 273.5 182 Z " /><path fill="rgb(100,154,209)" stroke="rgb(100,154,209)" stroke-width="1" opacity="0.996078431372549" d="M 323.5 182 L 337 182.5 L 323.5 183 L 323.5 182 Z " /><path fill="rgb(100,154,209)" stroke="rgb(100,154,209)" stroke-width="1" opacity="0.996078431372549" d="M 203.5 188 L 202.5 190 L 203.5 188 Z " /><path fill="rgb(100,154,209)" stroke="rgb(100,154,209)" stroke-width="1" opacity="0.996078431372549" d="M 196.5 192 L 195.5 194 L 196.5 192 Z " /><path fill="rgb(100,154,209)" stroke="rgb(100,154,209)" stroke-width="1" opacity="0.996078431372549" d="M 184.5 199 L 183.5 201 L 184.5 199 Z " /><path fill="rgb(100,154,209)" stroke="rgb(100,154,209)" stroke-width="1" opacity="0.996078431372549" d="M 177.5 201 L 177.5 204 Q 174.5 202.5 177.5 201 Z " /><path fill="rgb(100,154,209)" stroke="rgb(100,154,209)" stroke-width="1" opacity="0.996078431372549" d="M 158.5 212 L 158.5 215 Q 155.5 213.5 158.5 212 Z " /><path fill="rgb(100,154,209)" stroke="rgb(100,154,209)" stroke-width="1" opacity="0.996078431372549" d="M 151.5 216 L 151.5 219 Q 148.5 217.5 151.5 216 Z " /><path fill="rgb(100,154,209)" stroke="rgb(100,154,209)" stroke-width="1" opacity="0.996078431372549" d="M 144.5 220 L 145 222.5 L 143.5 224 L 143 221.5 L 144.5 220 Z " /><path fill="rgb(100,154,209)" stroke="rgb(100,154,209)" stroke-width="1" opacity="0.996078431372549" d="M 273.5 222 L 287 222.5 L 273.5 223 L 273.5 222 Z " /><path fill="rgb(100,154,209)" stroke="rgb(100,154,209)" stroke-width="1" opacity="0.996078431372549" d="M 323.5 222 L 337 222.5 L 323.5 223 L 323.5 222 Z " /><path fill="rgb(100,154,209)" stroke="rgb(100,154,209)" stroke-width="1" opacity="0.996078431372549" d="M 132.5 227 L 132.5 230 Q 129.5 228.5 132.5 227 Z " /><path fill="rgb(100,154,209)" stroke="rgb(100,154,209)" stroke-width="1" opacity="0.996078431372549" d="M 128.5 233 L 129.5 235 L 128.5 233 Z " /><path fill="rgb(100,154,209)" stroke="rgb(100,154,209)" stroke-width="1" opacity="0.996078431372549" d="M 229.5 236 L 228.5 238 L 229.5 236 Z " /><path fill="rgb(100,154,209)" stroke="rgb(100,154,209)" stroke-width="1" opacity="0.996078431372549" d="M 226.5 240 L 224.5 243 L 226.5 240 Z " /><path fill="rgb(100,154,209)" stroke="rgb(100,154,209)" stroke-width="1" opacity="0.996078431372549" d="M 134.5 241 L 136.5 244 L 134.5 241 Z " /><path fill="rgb(100,154,209)" stroke="rgb(100,154,209)" stroke-width="1" opacity="0.996078431372549" d="M 139.5 246 L 141.5 249 L 139.5 246 Z " /><path fill="rgb(100,154,209)" stroke="rgb(100,154,209)" stroke-width="1" opacity="0.996078431372549" d="M 220.5 246 L 218.5 249 L 220.5 246 Z " /><path fill="rgb(100,154,209)" stroke="rgb(100,154,209)" stroke-width="1" opacity="0.996078431372549" d="M 72.5 262 L 73.5 264 L 72.5 262 Z " /><path fill="rgb(100,154,209)" stroke="rgb(100,154,209)" stroke-width="1" opacity="0.996078431372549" d="M 176.5 262 L 184 262.5 L 176.5 263 L 176.5 262 Z " /><path fill="rgb(100,154,209)" stroke="rgb(100,154,209)" stroke-width="1" opacity="0.996078431372549" d="M 54.5 272 L 54.5 275 Q 51.5 273.5 54.5 272 Z " /><path fill="rgb(100,154,209)" stroke="rgb(100,154,209)" stroke-width="1" opacity="0.996078431372549" d="M 47.5 276 L 47.5 279 Q 44.5 277.5 47.5 276 Z " /><path fill="rgb(100,154,209)" stroke="rgb(100,154,209)" stroke-width="1" opacity="0.996078431372549" d="M 85.5 276 L 86.5 278 L 85.5 276 Z " /><path fill="rgb(100,154,209)" stroke="rgb(100,154,209)" stroke-width="1" opacity="0.996078431372549" d="M 270.5 281 L 266.5 286 L 270.5 281 Z " /><path fill="rgb(100,154,209)" stroke="rgb(100,154,209)" stroke-width="1" opacity="0.996078431372549" d="M 90.5 282 L 100.5 293 L 90.5 282 Z " /><path fill="rgb(100,154,209)" stroke="rgb(100,154,209)" stroke-width="1" opacity="0.996078431372549" d="M 28.5 287 L 28.5 290 Q 25.5 288.5 28.5 287 Z " /><path fill="rgb(100,154,209)" stroke="rgb(100,154,209)" stroke-width="1" opacity="0.996078431372549" d="M 263.5 288 L 259.5 293 L 263.5 288 Z " /><path fill="rgb(100,154,209)" stroke="rgb(100,154,209)" stroke-width="1" opacity="0.996078431372549" d="M 21.5 291 L 22 293.5 L 20.5 295 L 20 292.5 L 21.5 291 Z " /><path fill="rgb(100,154,209)" stroke="rgb(100,154,209)" stroke-width="1" opacity="0.996078431372549" d="M 14.5 295 L 13.5 297 L 14.5 295 Z " /><path fill="rgb(100,154,209)" stroke="rgb(100,154,209)" stroke-width="1" opacity="0.996078431372549" d="M 105.5 296 L 106.5 298 L 105.5 296 Z " /><path fill="rgb(100,154,209)" stroke="rgb(100,154,209)" stroke-width="1" opacity="0.996078431372549" d="M 254.5 296 L 253.5 298 L 254.5 296 Z " /><path fill="rgb(100,154,209)" stroke="rgb(100,154,209)" stroke-width="1" opacity="0.996078431372549" d="M 9.5 298 L 9.5 301 Q 6.5 299.5 9.5 298 Z " /><path fill="rgb(100,154,209)" stroke="rgb(100,154,209)" stroke-width="1" opacity="0.996078431372549" d="M 112.5 301 L 113.5 303 L 112.5 301 Z " /><path fill="rgb(100,154,209)" stroke="rgb(100,154,209)" stroke-width="1" opacity="0.996078431372549" d="M 247.5 301 L 246.5 303 L 247.5 301 Z " /><path fill="rgb(100,154,209)" stroke="rgb(100,154,209)" stroke-width="1" opacity="0.996078431372549" d="M 163.5 321 L 166 321.5 L 163.5 322 L 163.5 321 Z " /><path fill="rgb(100,154,209)" stroke="rgb(100,154,209)" stroke-width="1" opacity="0.996078431372549" d="M 194.5 321 L 197 321.5 L 194.5 322 L 194.5 321 Z " /><path fill="rgb(100,154,209)" stroke="rgb(100,154,209)" stroke-width="1" opacity="0.996078431372549" d="M 173.5 322 L 187 322.5 L 173.5 323 L 173.5 322 Z " /><path fill="rgb(100,154,210)" stroke="rgb(100,154,210)" stroke-width="1" opacity="1" d="M 172.5 1 Q 189.1 -1.1 197.5 5 L 334.5 84 L 347.5 92 L 352 96.5 L 354 102 L 284.5 142 L 283.5 139 L 282 139.5 L 283 137.5 L 280 136.5 L 281 134.5 L 278 133.5 L 279 131.5 L 275 129.5 L 276 127.5 L 270 123.5 L 272 123.5 L 260.5 111 L 259 111.5 L 259.5 113 L 255.5 107 L 253.5 108 L 251.5 104 L 249.5 105 Q 251.2 103 247.5 101 L 246 101.5 L 246.5 103 L 245.5 100 L 243.5 101 L 242.5 98 L 240.5 99 L 240.5 97 L 238.5 98 L 237.5 95 L 227.5 91 L 226 91.5 L 226.5 90 L 222.5 89 L 220.5 90 L 220.5 89 L 222 88.5 L 213.5 86 L 211.5 87 L 211.5 86 L 213 85.5 L 193.5 81 L 165.5 81 L 146.5 85 L 138 88.5 L 138.5 90 L 135.5 89 L 133 90.5 L 133.5 92 L 130.5 91 L 119 97.5 L 119.5 99 L 117.5 98 L 114 100.5 Q 116.3 101.8 113.5 103 L 113.5 101 L 111 102.5 Q 113.3 103.8 110.5 105 L 108.5 104 L 106.5 108 L 104.5 107 L 100.5 113 L 100.5 111 L 89 121.5 L 89.5 123 L 91 122.5 L 84 127.5 L 85 129.5 Q 83 127.8 81 131.5 L 82 133.5 L 79 134.5 L 80 136.5 L 77 137.5 L 78 139.5 L 75 140.5 L 74 143.5 L 74.5 145 L 73 144.5 L 74 146.5 L 72 146.5 L 73 148.5 L 71 148.5 L 72 150.5 L 70 150.5 L 71 152.5 L 69 152.5 L 70 154.5 L 68 154.5 L 67 158.5 L 67.5 160 L 66 159.5 L 63 170.5 L 64 172.5 L 63 172.5 L 62.5 171 L 59 184.5 L 58 211.5 L 62.5 234 L 63.5 232 L 64 233.5 L 63 237.5 L 66.5 246 L 68 245.5 L 67 248.5 L 68.5 251 L 70 250.5 L 69 252.5 L 71 252.5 L 70 254.5 L 72 254.5 L 71 256.5 L 73 256.5 L 72 258.5 L 74 258.5 L 73 260.5 L 75 260.5 L 74.5 263 L 4.5 303 L 4.5 301 Q 1.9 301.8 3 298.5 L 1 294.5 L 1 110.5 Q 4.1 98.6 12.5 92 L 162.5 5 L 172.5 1 Z " /><path fill="rgb(100,154,210)" stroke="rgb(100,154,210)" stroke-width="1" opacity="1" d="M 168.5 82 L 175 82.5 L 168.5 83 L 168.5 82 Z " /><path fill="rgb(100,154,210)" stroke="rgb(100,154,210)" stroke-width="1" opacity="1" d="M 185.5 82 L 192 82.5 L 185.5 83 L 185.5 82 Z " /><path fill="rgb(100,154,210)" stroke="rgb(100,154,210)" stroke-width="1" opacity="1" d="M 160.5 83 L 164 83.5 L 160.5 84 L 160.5 83 Z " /><path fill="rgb(100,154,210)" stroke="rgb(100,154,210)" stroke-width="1" opacity="1" d="M 196.5 83 L 199 83.5 L 196.5 84 L 196.5 83 Z " /><path fill="rgb(100,154,210)" stroke="rgb(100,154,210)" stroke-width="1" opacity="1" d="M 155.5 84 L 158 84.5 L 155.5 85 L 155.5 84 Z " /><path fill="rgb(100,154,210)" stroke="rgb(100,154,210)" stroke-width="1" opacity="1" d="M 202.5 84 L 205 84.5 L 202.5 85 L 202.5 84 Z " /><path fill="rgb(100,154,210)" stroke="rgb(100,154,210)" stroke-width="1" opacity="1" d="M 170.5 143 L 173 143.5 L 170.5 144 L 170.5 143 Z " /><path fill="rgb(100,154,210)" stroke="rgb(100,154,210)" stroke-width="1" opacity="1" d="M 187.5 143 L 190 143.5 L 187.5 144 L 187.5 143 Z " /><path fill="rgb(100,154,210)" stroke="rgb(100,154,210)" stroke-width="1" opacity="1" d="M 177.5 144 L 191.5 145 L 201.5 148 L 203.5 147 L 203.5 148 L 202 148.5 L 211.5 153 L 213 152.5 Q 210.8 153.8 213.5 155 L 215.5 154 Q 218.3 155.3 216 156.5 L 219.5 160 L 221 159.5 L 220.5 158 L 224.5 163 L 223 162.5 L 226.5 167 Q 227.8 164.8 229 167.5 L 227 167.5 L 229 172 L 231 172.5 L 129.5 231 L 127.5 228 L 126 228.5 L 127 226.5 L 125 226.5 L 126 223.5 L 123.5 217 L 122.5 219 L 122 217.5 Q 124.2 216.3 123 211.5 L 122 210.5 L 122 194.5 Q 124.2 193.3 123 188.5 L 122 186.5 L 123 186.5 L 123.5 188 L 126 179.5 L 125.5 178 L 127 178.5 L 126 176.5 L 128 176.5 L 127 174.5 L 129 174.5 L 128 172.5 L 131 171.5 L 133 167.5 L 131 167.5 Q 132.3 164.8 133.5 167 L 137 163.5 L 136.5 162 L 135 162.5 L 140 158.5 L 139.5 160 L 144 156.5 Q 141.8 155.3 144.5 154 L 146.5 155 L 147.5 152 L 149.5 153 L 164.5 146 L 176.5 145 L 177.5 144 Z " /><path fill="rgb(100,154,210)" stroke="rgb(100,154,210)" stroke-width="1" opacity="1" d="M 61.5 180 L 62 182.5 L 61 182.5 L 61.5 180 Z " /><path fill="rgb(100,154,210)" stroke="rgb(100,154,210)" stroke-width="1" opacity="1" d="M 60.5 186 L 61 189.5 L 60 189.5 L 60.5 186 Z " /><path fill="rgb(100,154,210)" stroke="rgb(100,154,210)" stroke-width="1" opacity="1" d="M 120.5 196 L 121 208.5 L 120 208.5 L 120.5 196 Z " /><path fill="rgb(100,154,210)" stroke="rgb(100,154,210)" stroke-width="1" opacity="1" d="M 59.5 197 L 60 207.5 L 59 207.5 L 59.5 197 Z " /><path fill="rgb(100,154,210)" stroke="rgb(100,154,210)" stroke-width="1" opacity="1" d="M 60.5 215 L 61 218.5 L 60 218.5 L 60.5 215 Z " /><path fill="rgb(100,154,210)" stroke="rgb(100,154,210)" stroke-width="1" opacity="1" d="M 61.5 222 L 62 224.5 L 61 224.5 L 61.5 222 Z " /><path fill="rgb(100,154,210)" stroke="rgb(100,154,210)" stroke-width="1" opacity="1" d="M 265.5 286 L 264.5 288 L 265.5 286 Z " /><path fill="rgb(220,231,242)" stroke="rgb(220,231,242)" stroke-width="1" opacity="1" d="M 175.5 82 L 185 82.5 L 175.5 83 L 175.5 82 Z " /><path fill="rgb(220,231,242)" stroke="rgb(220,231,242)" stroke-width="1" opacity="1" d="M 164.5 83 L 169 83.5 L 164.5 84 L 164.5 83 Z " /><path fill="rgb(220,231,242)" stroke="rgb(220,231,242)" stroke-width="1" opacity="1" d="M 191.5 83 L 196 83.5 L 191.5 84 L 191.5 83 Z " /><path fill="rgb(220,231,242)" stroke="rgb(220,231,242)" stroke-width="1" opacity="1" d="M 158.5 84 L 161 84.5 L 158.5 85 L 158.5 84 Z " /><path fill="rgb(220,231,242)" stroke="rgb(220,231,242)" stroke-width="1" opacity="1" d="M 199.5 84 L 202 84.5 L 199.5 85 L 199.5 84 Z " /><path fill="rgb(220,231,242)" stroke="rgb(220,231,242)" stroke-width="1" opacity="1" d="M 204.5 85 L 207 85.5 L 204.5 86 L 204.5 85 Z " /><path fill="rgb(220,231,242)" stroke="rgb(220,231,242)" stroke-width="1" opacity="1" d="M 118.5 99 L 117.5 101 L 118.5 99 Z " /><path fill="rgb(220,231,242)" stroke="rgb(220,231,242)" stroke-width="1" opacity="1" d="M 241.5 99 L 242.5 101 L 241.5 99 Z " /><path fill="rgb(220,231,242)" stroke="rgb(220,231,242)" stroke-width="1" opacity="1" d="M 109.5 105 L 108.5 107 L 109.5 105 Z " /><path fill="rgb(220,231,242)" stroke="rgb(220,231,242)" stroke-width="1" opacity="1" d="M 250.5 105 L 251.5 107 L 250.5 105 Z " /><path fill="rgb(220,231,242)" stroke="rgb(220,231,242)" stroke-width="1" opacity="1" d="M 105.5 108 L 103.5 111 L 105.5 108 Z " /><path fill="rgb(220,231,242)" stroke="rgb(220,231,242)" stroke-width="1" opacity="1" d="M 254.5 108 L 256.5 111 L 254.5 108 Z " /><path fill="rgb(220,231,242)" stroke="rgb(220,231,242)" stroke-width="1" opacity="1" d="M 99.5 113 L 91.5 122 L 99.5 113 Z " /><path fill="rgb(220,231,242)" stroke="rgb(220,231,242)" stroke-width="1" opacity="1" d="M 260.5 113 L 269.5 123 L 260.5 113 Z " /><path fill="rgb(220,231,242)" stroke="rgb(220,231,242)" stroke-width="1" opacity="1" d="M 87.5 126 L 85.5 129 L 87.5 126 Z " /><path fill="rgb(220,231,242)" stroke="rgb(220,231,242)" stroke-width="1" opacity="1" d="M 272.5 126 L 274.5 129 L 272.5 126 Z " /><path fill="rgb(220,231,242)" stroke="rgb(220,231,242)" stroke-width="1" opacity="1" d="M 83.5 131 L 82.5 133 L 83.5 131 Z " /><path fill="rgb(220,231,242)" stroke="rgb(220,231,242)" stroke-width="1" opacity="1" d="M 276.5 131 L 277.5 133 L 276.5 131 Z " /><path fill="rgb(220,231,242)" stroke="rgb(220,231,242)" stroke-width="1" opacity="1" d="M 81.5 134 L 80.5 136 L 81.5 134 Z " /><path fill="rgb(220,231,242)" stroke="rgb(220,231,242)" stroke-width="1" opacity="1" d="M 79.5 137 L 78.5 139 L 79.5 137 Z " /><path fill="rgb(220,231,242)" stroke="rgb(220,231,242)" stroke-width="1" opacity="1" d="M 282.5 140 L 284 142.5 L 283 142.5 L 282.5 140 Z " /><path fill="rgb(220,231,242)" stroke="rgb(220,231,242)" stroke-width="1" opacity="1" d="M 173.5 142 L 187 142.5 L 173.5 143 L 173.5 142 Z " /><path fill="rgb(220,231,242)" stroke="rgb(220,231,242)" stroke-width="1" opacity="1" d="M 167.5 143 L 170 143.5 L 167.5 144 L 167.5 143 Z " /><path fill="rgb(220,231,242)" stroke="rgb(220,231,242)" stroke-width="1" opacity="1" d="M 190.5 143 L 193 143.5 L 190.5 144 L 190.5 143 Z " /><path fill="rgb(220,231,242)" stroke="rgb(220,231,242)" stroke-width="1" opacity="1" d="M 149.5 150 L 148.5 152 L 149.5 150 Z " /><path fill="rgb(220,231,242)" stroke="rgb(220,231,242)" stroke-width="1" opacity="1" d="M 210.5 150 L 211.5 152 L 210.5 150 Z " /><path fill="rgb(220,231,242)" stroke="rgb(220,231,242)" stroke-width="1" opacity="1" d="M 146.5 152 L 145.5 154 L 146.5 152 Z " /><path fill="rgb(220,231,242)" stroke="rgb(220,231,242)" stroke-width="1" opacity="1" d="M 213.5 152 L 214.5 154 L 213.5 152 Z " /><path fill="rgb(220,231,242)" stroke="rgb(220,231,242)" stroke-width="1" opacity="1" d="M 142.5 155 L 140.5 158 L 142.5 155 Z " /><path fill="rgb(220,231,242)" stroke="rgb(220,231,242)" stroke-width="1" opacity="1" d="M 217.5 155 L 219.5 158 L 217.5 155 Z " /><path fill="rgb(220,231,242)" stroke="rgb(220,231,242)" stroke-width="1" opacity="1" d="M 134.5 163 L 132.5 166 L 134.5 163 Z " /><path fill="rgb(220,231,242)" stroke="rgb(220,231,242)" stroke-width="1" opacity="1" d="M 225.5 163 L 227.5 166 L 225.5 163 Z " /><path fill="rgb(220,231,242)" stroke="rgb(220,231,242)" stroke-width="1" opacity="1" d="M 62.5 177 L 63 179.5 L 62 179.5 L 62.5 177 Z " /><path fill="rgb(220,231,242)" stroke="rgb(220,231,242)" stroke-width="1" opacity="1" d="M 61.5 183 L 62 185.5 L 61 185.5 L 61.5 183 Z " /><path fill="rgb(220,231,242)" stroke="rgb(220,231,242)" stroke-width="1" opacity="1" d="M 273.5 183 L 274 193.5 L 273 193.5 L 273.5 183 Z " /><path fill="rgb(220,231,242)" stroke="rgb(220,231,242)" stroke-width="1" opacity="1" d="M 286.5 183 L 287 193.5 L 286 193.5 L 286.5 183 Z " /><path fill="rgb(220,231,242)" stroke="rgb(220,231,242)" stroke-width="1" opacity="1" d="M 323.5 183 L 324 193.5 L 323 193.5 L 323.5 183 Z " /><path fill="rgb(220,231,242)" stroke="rgb(220,231,242)" stroke-width="1" opacity="1" d="M 336.5 183 L 337 193.5 L 336 193.5 L 336.5 183 Z " /><path fill="rgb(220,231,242)" stroke="rgb(220,231,242)" stroke-width="1" opacity="1" d="M 60.5 190 L 61 197.5 L 60 197.5 L 60.5 190 Z " /><path fill="rgb(220,231,242)" stroke="rgb(220,231,242)" stroke-width="1" opacity="1" d="M 120.5 192 L 121 195.5 L 120 195.5 L 120.5 192 Z " /><path fill="rgb(220,231,242)" stroke="rgb(220,231,242)" stroke-width="1" opacity="1" d="M 310.5 198 L 311 206.5 L 310 206.5 L 310.5 198 Z " /><path fill="rgb(220,231,242)" stroke="rgb(220,231,242)" stroke-width="1" opacity="1" d="M 60.5 207 L 61 214.5 L 60 214.5 L 60.5 207 Z " /><path fill="rgb(220,231,242)" stroke="rgb(220,231,242)" stroke-width="1" opacity="1" d="M 120.5 209 L 121 212.5 L 120 212.5 L 120.5 209 Z " /><path fill="rgb(220,231,242)" stroke="rgb(220,231,242)" stroke-width="1" opacity="1" d="M 273.5 211 L 274 221.5 L 273 221.5 L 273.5 211 Z " /><path fill="rgb(220,231,242)" stroke="rgb(220,231,242)" stroke-width="1" opacity="1" d="M 286.5 211 L 287 221.5 L 286 221.5 L 286.5 211 Z " /><path fill="rgb(220,231,242)" stroke="rgb(220,231,242)" stroke-width="1" opacity="1" d="M 323.5 211 L 324 221.5 L 323 221.5 L 323.5 211 Z " /><path fill="rgb(220,231,242)" stroke="rgb(220,231,242)" stroke-width="1" opacity="1" d="M 336.5 211 L 337 221.5 L 336 221.5 L 336.5 211 Z " /><path fill="rgb(220,231,242)" stroke="rgb(220,231,242)" stroke-width="1" opacity="1" d="M 61.5 219 L 62 221.5 L 61 221.5 L 61.5 219 Z " /><path fill="rgb(220,231,242)" stroke="rgb(220,231,242)" stroke-width="1" opacity="1" d="M 62.5 225 L 63 227.5 L 62 227.5 L 62.5 225 Z " /><path fill="rgb(220,231,242)" stroke="rgb(220,231,242)" stroke-width="1" opacity="1" d="M 142.5 249 L 143.5 251 L 142.5 249 Z " /><path fill="rgb(220,231,242)" stroke="rgb(220,231,242)" stroke-width="1" opacity="1" d="M 217.5 249 L 216.5 251 L 217.5 249 Z " /><path fill="rgb(220,231,242)" stroke="rgb(220,231,242)" stroke-width="1" opacity="1" d="M 75.5 261 L 76.5 263 L 75.5 261 Z " /><path fill="rgb(220,231,242)" stroke="rgb(220,231,242)" stroke-width="1" opacity="1" d="M 172.5 262 L 176 262.5 L 172.5 263 L 172.5 262 Z " /><path fill="rgb(220,231,242)" stroke="rgb(220,231,242)" stroke-width="1" opacity="1" d="M 184.5 262 L 188 262.5 L 184.5 263 L 184.5 262 Z " /><path fill="rgb(220,231,242)" stroke="rgb(220,231,242)" stroke-width="1" opacity="1" d="M 83.5 273 L 84.5 275 L 83.5 273 Z " /><path fill="rgb(220,231,242)" stroke="rgb(220,231,242)" stroke-width="1" opacity="1" d="M 273.5 277 L 272.5 279 L 273.5 277 Z " /><path fill="rgb(220,231,242)" stroke="rgb(220,231,242)" stroke-width="1" opacity="1" d="M 87.5 278 L 88.5 280 L 87.5 278 Z " /><path fill="rgb(220,231,242)" stroke="rgb(220,231,242)" stroke-width="1" opacity="1" d="M 102.5 293 L 104.5 296 L 102.5 293 Z " /><path fill="rgb(220,231,242)" stroke="rgb(220,231,242)" stroke-width="1" opacity="1" d="M 256.5 294 L 255.5 296 L 256.5 294 Z " /><path fill="rgb(220,231,242)" stroke="rgb(220,231,242)" stroke-width="1" opacity="1" d="M 166.5 321 L 169 321.5 L 166.5 322 L 166.5 321 Z " /><path fill="rgb(220,231,242)" stroke="rgb(220,231,242)" stroke-width="1" opacity="1" d="M 190.5 321 L 194 321.5 L 190.5 322 L 190.5 321 Z " /><path fill="rgb(0,88,156)" stroke="rgb(0,88,156)" stroke-width="1" opacity="0.8705882352941177" d="M 355.5 101 Q 360.3 105.3 360 114.5 L 359 114.5 L 359 110.5 L 355.5 101 Z " /><path fill="rgb(0,88,156)" stroke="rgb(0,88,156)" stroke-width="1" opacity="0.8705882352941177" d="M 359.5 290 L 360 295.5 L 355.5 304 L 356 302.5 L 359.5 290 Z " /><path fill="rgb(254,255,255)" stroke="rgb(254,255,255)" stroke-width="1" opacity="1" d="M 169.5 83 L 198.5 84 L 212.5 87 L 226.5 92 Q 254.2 103.8 272 125.5 L 281 137.5 L 283 143 L 232.5 172 L 217.5 155 Q 208.9 147.6 196.5 144 L 186.5 142 L 173.5 142 Q 145.6 146.6 132 165.5 L 122 184.5 L 120 192.5 L 120 212.5 Q 125.5 238 143.5 251 Q 158.3 264.2 187.5 263 Q 214.5 258 228 239.5 L 232.5 233 L 283 262 Q 274.2 281.2 257.5 294 Q 240 309 215.5 317 L 189.5 322 L 169.5 322 L 144.5 317 L 119.5 306 Q 102 295.5 89 280.5 Q 76 265.5 68 245.5 L 62 224.5 L 60 198.5 L 61 197.5 L 61 186.5 L 63 175.5 L 70 154.5 Q 81.8 128.3 102.5 111 Q 115.9 99.4 133.5 92 L 147.5 87 L 169.5 83 Z " /><path fill="rgb(254,255,255)" stroke="rgb(254,255,255)" stroke-width="1" opacity="1" d="M 274 183 L 286 183 L 286 196 L 300 196 L 300 209 L 286 209 L 286 222 L 274 222 L 274 209 L 260 209 L 260 196 L 274 196 L 274 183 Z " /><path fill="rgb(254,255,255)" stroke="rgb(254,255,255)" stroke-width="1" opacity="1" d="M 324 183 L 336 183 L 336 196 L 350 196 L 350 209 L 336 209 L 336 222 L 324 222 L 324 209 L 310.5 209 L 310 207.5 L 311 206.5 L 311 198.5 L 310 196 L 324 196 L 324 183 Z " /><path fill="rgb(0,0,0)" stroke="rgb(0,0,0)" stroke-width="1" opacity="0" d="M 0 0 L 171 0.5 L 165.5 2 L 16.5 88 L 6 97.5 L 0.5 109 L 0 0 Z " /><path fill="rgb(0,0,0)" stroke="rgb(0,0,0)" stroke-width="1" opacity="0" d="M 189.5 0 L 360 0 L 360 108.5 L 359 108.5 Q 355.7 96.3 346.5 90 L 194.5 2 L 189.5 1 L 189.5 0 Z " /><path fill="rgb(0,0,0)" stroke="rgb(0,0,0)" stroke-width="1" opacity="0" d="M 0.5 296 Q 4.1 307.4 12.5 314 L 162.5 401 L 172 404.5 L 0 405 L 0.5 296 Z " /><path fill="rgb(0,0,0)" stroke="rgb(0,0,0)" stroke-width="1" opacity="0" d="M 359.5 296 L 360 405 L 188 404.5 L 197.5 401 L 341.5 318 L 353 308.5 L 359.5 296 Z " /><path fill="rgb(0,67,129)" stroke="rgb(0,67,129)" stroke-width="1" opacity="0.996078431372549" d="M 179.5 203 L 229 231.5 L 227.5 232 L 180.5 204 L 131 232 L 133 237.5 L 145.5 250 Q 155 257 168.5 260 L 191.5 260 Q 215 254.5 227 237.5 L 230.5 232 L 231 233.5 L 216.5 250 L 196.5 260 L 186.5 262 L 173.5 262 L 163.5 260 L 149.5 254 L 133 239.5 L 129 232 L 179.5 203 Z " /><path fill="rgb(0,67,129)" stroke="rgb(0,67,129)" stroke-width="1" opacity="0.996078431372549" d="M 75.5 263 Q 86.4 281.6 102.5 295 Q 121.1 310.9 147.5 319 L 168.5 323 L 191.5 323 L 212.5 319 L 240.5 307 Q 259.3 295.8 273 279.5 L 284.5 263 L 355 304.5 L 354.5 306 L 354 304 L 284.5 265 Q 274.9 281.9 260.5 294 Q 241.4 311.4 213.5 320 L 194.5 324 L 165.5 324 Q 114.9 315.1 88 282.5 L 75.5 265 L 13.5 300 L 5.5 306 L 5 304.5 L 75.5 263 Z " /><path fill="rgb(0,67,129)" stroke="rgb(0,67,129)" stroke-width="1" opacity="0.996078431372549" d="M 16.5 315 L 18.5 318 L 16.5 315 Z " /><path fill="rgb(0,67,129)" stroke="rgb(0,67,129)" stroke-width="1" opacity="0.996078431372549" d="M 343.5 315 L 341.5 318 L 343.5 315 Z " /><path fill="rgb(0,67,129)" stroke="rgb(0,67,129)" stroke-width="1" opacity="0.996078431372549" d="M 24.5 320 L 25.5 322 L 24.5 320 Z " /><path fill="rgb(0,67,129)" stroke="rgb(0,67,129)" stroke-width="1" opacity="0.996078431372549" d="M 335.5 320 L 334.5 322 L 335.5 320 Z " /><path fill="rgb(0,67,129)" stroke="rgb(0,67,129)" stroke-width="1" opacity="0.996078431372549" d="M 50.5 335 L 51.5 337 L 50.5 335 Z " /><path fill="rgb(0,67,129)" stroke="rgb(0,67,129)" stroke-width="1" opacity="0.996078431372549" d="M 309.5 335 L 308.5 337 L 309.5 335 Z " /><path fill="rgb(0,67,129)" stroke="rgb(0,67,129)" stroke-width="1" opacity="0.996078431372549" d="M 59.5 340 L 60.5 342 L 59.5 340 Z " /><path fill="rgb(0,67,129)" stroke="rgb(0,67,129)" stroke-width="1" opacity="0.996078431372549" d="M 300.5 340 L 299.5 342 L 300.5 340 Z " /><path fill="rgb(0,67,129)" stroke="rgb(0,67,129)" stroke-width="1" opacity="0.996078431372549" d="M 73.5 348 L 74.5 350 L 73.5 348 Z " /><path fill="rgb(0,67,129)" stroke="rgb(0,67,129)" stroke-width="1" opacity="0.996078431372549" d="M 286.5 348 L 285.5 350 L 286.5 348 Z " /><path fill="rgb(0,67,129)" stroke="rgb(0,67,129)" stroke-width="1" opacity="0.996078431372549" d="M 88.5 357 L 89.5 359 L 88.5 357 Z " /><path fill="rgb(0,67,129)" stroke="rgb(0,67,129)" stroke-width="1" opacity="0.996078431372549" d="M 271.5 357 L 270.5 359 L 271.5 357 Z " /><path fill="rgb(0,67,129)" stroke="rgb(0,67,129)" stroke-width="1" opacity="0.996078431372549" d="M 91.5 359 L 94 360.5 L 92.5 360 L 91.5 359 Z " /><path fill="rgb(0,67,129)" stroke="rgb(0,67,129)" stroke-width="1" opacity="0.996078431372549" d="M 267.5 359 L 269 359.5 L 266.5 361 L 267.5 359 Z " /><path fill="rgb(0,67,129)" stroke="rgb(0,67,129)" stroke-width="1" opacity="0.996078431372549" d="M 114.5 372 L 115.5 374 L 114.5 372 Z " /><path fill="rgb(0,67,129)" stroke="rgb(0,67,129)" stroke-width="1" opacity="0.996078431372549" d="M 245.5 372 L 244.5 374 L 245.5 372 Z " /><path fill="rgb(0,67,129)" stroke="rgb(0,67,129)" stroke-width="1" opacity="0.996078431372549" d="M 128.5 380 L 132 382.5 L 130.5 382 L 128.5 380 Z " /><path fill="rgb(0,67,129)" stroke="rgb(0,67,129)" stroke-width="1" opacity="0.996078431372549" d="M 231.5 380 L 230.5 382 L 228.5 383 L 229.5 381 L 231.5 380 Z " /><path fill="rgb(0,67,129)" stroke="rgb(0,67,129)" stroke-width="1" opacity="0.996078431372549" d="M 167.5 402 L 168.5 404 L 167.5 402 Z " /><path fill="rgb(0,67,129)" stroke="rgb(0,67,129)" stroke-width="1" opacity="0.996078431372549" d="M 192.5 402 L 191.5 404 L 192.5 402 Z " /><path fill="rgb(0,88,156)" stroke="rgb(0,88,156)" stroke-width="1" opacity="1" d="M 353.5 102 Q 356.8 100.9 356 103.5 L 360 115.5 L 360 289.5 L 356 303 L 353.5 303 L 283 262 L 282.5 260 L 281 260.5 L 280.5 259 L 279 259.5 L 279.5 258 L 277.5 259 L 277.5 257 L 275.5 256 L 274 256.5 L 273.5 255 L 272 255.5 L 272.5 254 L 270.5 253 L 269 253.5 L 268.5 252 L 267 252.5 L 267.5 251 L 265.5 252 L 265.5 250 L 263.5 249 L 262 249.5 L 261.5 248 L 260 248.5 L 260.5 247 L 258.5 248 L 258.5 246 L 256.5 245 L 255 245.5 L 254.5 244 L 253 244.5 L 253.5 243 L 251.5 242 L 250 242.5 L 249.5 241 L 248 241.5 L 248.5 240 L 246.5 241 L 246.5 239 L 244.5 238 L 243 238.5 L 242.5 237 L 241 237.5 L 241.5 236 L 239.5 237 L 239.5 235 L 237.5 234 L 236 234.5 L 235.5 233 L 234 233.5 L 234.5 232 L 232.5 231 L 231.5 233 L 228.5 230 L 180 202.5 L 182.5 201 L 184 201.5 L 185.5 199 L 201.5 190 L 203 190.5 L 204.5 188 L 230.5 173 L 232.5 174 L 235 172.5 L 234.5 171 L 236 171.5 L 236.5 170 L 238.5 170 L 242 168.5 L 241.5 167 L 243 167.5 L 243.5 166 L 245.5 166 L 247 165.5 L 246.5 164 L 248.5 165 L 248.5 163 L 250 163.5 L 250.5 162 L 252.5 162 L 254 161.5 L 253.5 160 L 255.5 161 L 255.5 159 L 257 159.5 L 257.5 158 L 259.5 158 L 261 157.5 L 260.5 156 L 262 156.5 L 262.5 155 L 264.5 155 L 266 154.5 L 265.5 153 L 267.5 154 L 267.5 152 L 269 152.5 L 269.5 151 L 271.5 151 L 273 150.5 L 272.5 149 L 274.5 150 L 274.5 148 L 276 148.5 L 276.5 147 L 278.5 147 L 280 146.5 L 279.5 145 L 281 145.5 L 281.5 144 L 283 144.5 L 284.5 142 L 286 142.5 L 287.5 140 L 305.5 130 L 307 130.5 L 308.5 128 L 350.5 104 L 352 104.5 L 353.5 102 Z M 273 181 L 272 184 L 272 194 L 260 195 L 273 195 L 273 196 L 260 196 L 260 209 L 273 210 L 260 211 L 272 211 L 272 222 L 273 223 L 274 224 L 287 224 L 288 222 L 288 211 L 300 211 L 288 210 L 288 209 L 300 209 L 300 196 L 287 196 L 300 195 L 288 194 L 288 184 L 287 183 L 287 181 L 273 181 Z M 323 181 L 322 184 L 322 194 L 310 195 L 323 195 L 323 196 L 310 196 L 310 209 L 323 210 L 310 211 L 322 211 L 322 222 L 323 223 L 324 224 L 337 224 L 338 222 L 338 211 L 350 211 L 338 210 L 338 209 L 350 209 L 350 196 L 337 196 L 350 195 L 338 194 L 338 184 L 337 183 L 337 181 L 323 181 Z " /><path fill="rgb(0,88,156)" stroke="rgb(0,88,156)" stroke-width="1" opacity="1" d="M 223.5 243 L 221.5 246 L 223.5 243 Z " /><path fill="rgb(0,88,156)" stroke="rgb(0,88,156)" stroke-width="1" opacity="1" d="M 137.5 244 L 138.5 246 L 137.5 244 Z " /><path fill="rgb(0,88,156)" stroke="rgb(0,88,156)" stroke-width="1" opacity="1" d="M 72.5 264 L 71.5 266 L 72.5 264 Z " /><path fill="rgb(0,88,156)" stroke="rgb(0,88,156)" stroke-width="1" opacity="1" d="M 46.5 279 L 45.5 281 L 46.5 279 Z " /><path fill="rgb(0,88,156)" stroke="rgb(0,88,156)" stroke-width="1" opacity="1" d="M 88.5 280 L 89.5 282 L 88.5 280 Z " /><path fill="rgb(0,88,156)" stroke="rgb(0,88,156)" stroke-width="1" opacity="1" d="M 169.5 322 L 173 322.5 L 169.5 323 L 169.5 322 Z " /><path fill="rgb(0,88,156)" stroke="rgb(0,88,156)" stroke-width="1" opacity="1" d="M 187.5 322 L 191 322.5 L 187.5 323 L 187.5 322 Z " /><path fill="rgb(0,68,130)" stroke="rgb(0,68,130)" stroke-width="1" opacity="1" d="M 280.5 145 L 279.5 147 L 277.5 148 L 278.5 146 L 280.5 145 Z " /><path fill="rgb(0,68,130)" stroke="rgb(0,68,130)" stroke-width="1" opacity="1" d="M 275.5 148 L 274.5 150 L 270.5 152 L 271.5 150 L 275.5 148 Z " /><path fill="rgb(0,68,130)" stroke="rgb(0,68,130)" stroke-width="1" opacity="1" d="M 268.5 152 L 267.5 154 L 263.5 156 L 264.5 154 L 268.5 152 Z " /><path fill="rgb(0,68,130)" stroke="rgb(0,68,130)" stroke-width="1" opacity="1" d="M 261.5 156 L 260.5 158 L 258.5 159 L 259.5 157 L 261.5 156 Z " /><path fill="rgb(0,68,130)" stroke="rgb(0,68,130)" stroke-width="1" opacity="1" d="M 256.5 159 L 255.5 161 L 251.5 163 L 252.5 161 L 256.5 159 Z " /><path fill="rgb(0,68,130)" stroke="rgb(0,68,130)" stroke-width="1" opacity="1" d="M 249.5 163 L 248.5 165 L 244.5 167 L 245.5 165 L 249.5 163 Z " /><path fill="rgb(0,68,130)" stroke="rgb(0,68,130)" stroke-width="1" opacity="1" d="M 242.5 167 L 241.5 169 L 237.5 171 L 238.5 169 L 242.5 167 Z " /><path fill="rgb(0,68,130)" stroke="rgb(0,68,130)" stroke-width="1" opacity="1" d="M 235.5 171 L 234.5 173 L 231.5 174 L 231.5 173 L 235.5 171 Z " /><path fill="rgb(0,68,130)" stroke="rgb(0,68,130)" stroke-width="1" opacity="1" d="M 273.5 181 L 287 181.5 L 273.5 182 L 273.5 181 Z " /><path fill="rgb(0,68,130)" stroke="rgb(0,68,130)" stroke-width="1" opacity="1" d="M 323.5 181 L 337 181.5 L 323.5 182 L 323.5 181 Z " /><path fill="rgb(0,68,130)" stroke="rgb(0,68,130)" stroke-width="1" opacity="1" d="M 272.5 183 L 273 195 L 260 194.5 L 272 194 L 272.5 183 Z " /><path fill="rgb(0,68,130)" stroke="rgb(0,68,130)" stroke-width="1" opacity="1" d="M 287.5 183 L 288 194 L 300 194.5 L 287 195 L 287.5 183 Z " /><path fill="rgb(0,68,130)" stroke="rgb(0,68,130)" stroke-width="1" opacity="1" d="M 322.5 183 L 323 195 L 310 194.5 L 322 194 L 322.5 183 Z " /><path fill="rgb(0,68,130)" stroke="rgb(0,68,130)" stroke-width="1" opacity="1" d="M 337.5 183 L 338 194 L 350 194.5 L 337 195 L 337.5 183 Z " /><path fill="rgb(0,68,130)" stroke="rgb(0,68,130)" stroke-width="1" opacity="1" d="M 181.5 203 L 182.5 206 L 184 205.5 L 183.5 204 L 184.5 207 L 186.5 206 L 186.5 208 L 188.5 207 L 189.5 210 L 191 209.5 L 190.5 208 L 191.5 211 L 193.5 210 L 194.5 213 L 196 212.5 L 195.5 211 L 196.5 214 L 198.5 213 L 198.5 215 L 200.5 214 L 201.5 217 L 203 216.5 L 202.5 215 L 203.5 218 L 205.5 217 L 205.5 219 L 207.5 218 L 208.5 221 L 210 220.5 L 209.5 219 L 210.5 222 L 212.5 221 L 213.5 224 L 216.5 225 L 218 224.5 L 217.5 226 L 219.5 225 L 220.5 228 L 222 227.5 L 221.5 226 L 222.5 229 L 224.5 228 L 224.5 230 L 226.5 229 L 227.5 232 L 229 231.5 L 228.5 230 L 230 232.5 L 227 237.5 L 227.5 239 L 226.5 238 L 214.5 250 L 202 256.5 L 202.5 258 L 199.5 257 L 191.5 260 L 168.5 260 Q 145.4 254.6 133.5 238 L 132 238.5 L 133 236.5 L 130 231.5 L 131.5 232 L 138 228.5 L 137.5 227 L 139.5 228 L 145 224.5 L 144.5 223 L 146.5 224 L 150 221.5 L 149.5 220 L 151.5 221 L 157 217.5 L 156.5 216 L 158.5 217 L 164 213.5 L 163.5 212 L 165.5 213 L 171 209.5 L 170.5 208 L 172.5 209 L 176 206.5 L 175.5 205 L 177.5 206 L 177.5 204 L 179.5 205 L 181.5 203 Z " /><path fill="rgb(0,68,130)" stroke="rgb(0,68,130)" stroke-width="1" opacity="1" d="M 260.5 210 L 273 210 L 273 221.5 L 272 221.5 L 272 211 L 260.5 211 L 260.5 210 Z " /><path fill="rgb(0,68,130)" stroke="rgb(0,68,130)" stroke-width="1" opacity="1" d="M 287 210 L 300 210.5 L 288 211 L 287.5 222 L 287 210 Z " /><path fill="rgb(0,68,130)" stroke="rgb(0,68,130)" stroke-width="1" opacity="1" d="M 310.5 210 L 323 210 L 323 221.5 L 322 221.5 L 322 211 L 310.5 211 L 310.5 210 Z " /><path fill="rgb(0,68,130)" stroke="rgb(0,68,130)" stroke-width="1" opacity="1" d="M 337 210 L 350 210.5 L 338 211 L 337.5 222 L 337 210 Z " /><path fill="rgb(0,68,130)" stroke="rgb(0,68,130)" stroke-width="1" opacity="1" d="M 273.5 223 L 287 223.5 L 273.5 224 L 273.5 223 Z " /><path fill="rgb(0,68,130)" stroke="rgb(0,68,130)" stroke-width="1" opacity="1" d="M 323.5 223 L 337 223.5 L 323.5 224 L 323.5 223 Z " /><path fill="rgb(0,68,130)" stroke="rgb(0,68,130)" stroke-width="1" opacity="1" d="M 232.5 231 L 236 233.5 L 234.5 233 L 232.5 231 Z " /><path fill="rgb(0,68,130)" stroke="rgb(0,68,130)" stroke-width="1" opacity="1" d="M 237.5 234 L 243 237.5 L 241.5 237 Q 237.5 236.5 237.5 234 Z " /><path fill="rgb(0,68,130)" stroke="rgb(0,68,130)" stroke-width="1" opacity="1" d="M 244.5 238 L 250 241.5 L 248.5 241 Q 244.5 240.5 244.5 238 Z " /><path fill="rgb(0,68,130)" stroke="rgb(0,68,130)" stroke-width="1" opacity="1" d="M 251.5 242 L 255 244.5 L 253.5 244 L 251.5 242 Z " /><path fill="rgb(0,68,130)" stroke="rgb(0,68,130)" stroke-width="1" opacity="1" d="M 256.5 245 L 262 248.5 L 260.5 248 Q 256.5 247.5 256.5 245 Z " /><path fill="rgb(0,68,130)" stroke="rgb(0,68,130)" stroke-width="1" opacity="1" d="M 263.5 249 L 269 252.5 L 267.5 252 Q 263.5 251.5 263.5 249 Z " /><path fill="rgb(0,68,130)" stroke="rgb(0,68,130)" stroke-width="1" opacity="1" d="M 270.5 253 L 274 255.5 L 272.5 255 L 270.5 253 Z " /><path fill="rgb(0,68,130)" stroke="rgb(0,68,130)" stroke-width="1" opacity="1" d="M 275.5 256 L 281 259.5 L 279.5 259 Q 275.5 258.5 275.5 256 Z " /><path fill="rgb(0,68,130)" stroke="rgb(0,68,130)" stroke-width="1" opacity="1" d="M 284.5 262 L 285.5 264 L 284.5 262 Z " /><path fill="rgb(0,68,130)" stroke="rgb(0,68,130)" stroke-width="1" opacity="1" d="M 73.5 264 L 77 266.5 L 86.5 280 L 88 279.5 L 88 281.5 L 99.5 294 L 101.5 295 L 103 294.5 L 102 295.5 L 105.5 299 L 107.5 298 Q 105.8 300 109.5 302 L 113.5 304 L 115 303.5 Q 112.8 304.8 115.5 306 Q 132.1 316.9 154.5 322 L 165.5 324 L 194.5 324 L 213.5 320 L 222 316.5 L 221.5 315 L 224.5 316 L 227 314.5 L 226.5 313 L 229.5 314 L 241 307.5 L 240.5 306 L 242.5 307 L 246 304.5 L 245.5 303 L 247.5 304 L 253 299.5 L 252.5 298 L 254.5 299 Q 259.3 296.5 257.5 294 L 259.5 294 L 272 282.5 L 273 280.5 L 272.5 279 L 273.5 280 L 277 276.5 L 276 274.5 L 279 273.5 L 284.5 265 L 287.5 266 L 287.5 264 L 288.5 267 L 290.5 266 L 291.5 269 L 294.5 270 L 296 269.5 L 295.5 271 L 297.5 270 L 298.5 273 L 300 272.5 L 299.5 271 L 300.5 274 L 302.5 273 L 302.5 275 L 304.5 274 L 305.5 277 L 307 276.5 L 306.5 275 L 307.5 278 L 309.5 277 L 310.5 280 L 313.5 281 L 315 280.5 L 314.5 282 L 316.5 281 L 317.5 284 L 320.5 285 L 322 284.5 L 321.5 286 L 323.5 285 L 324.5 288 L 326 287.5 L 325.5 286 L 326.5 289 L 328.5 288 L 328.5 290 L 330.5 289 L 331.5 292 L 333 291.5 L 332.5 290 L 333.5 293 L 335.5 292 L 336.5 295 L 339.5 296 L 339.5 294 L 340.5 297 L 342.5 296 L 343.5 299 L 346.5 300 L 348 299.5 L 347.5 301 L 349.5 300 L 350.5 303 L 352 302.5 L 351.5 301 L 352.5 304 L 354.5 303 L 354 304.5 Q 353.4 310.9 348.5 313 L 344.5 316 L 343.5 315 Q 340.8 320.4 338 318.5 Q 338.8 321.1 335.5 320 Q 329 326.8 319 329 Q 320.1 331.7 317.5 331 L 313.5 334 L 312 333.5 Q 312.8 336.1 309.5 335 L 301.5 341 L 300.5 340 L 297.5 343 L 287.5 349 L 286.5 348 L 283.5 351 L 267.5 359 L 261.5 364 L 260 363.5 Q 260.8 365.8 258.5 365 L 242.5 375 L 241 374.5 Q 241.8 376.8 239.5 376 L 229.5 381 L 223.5 386 L 222 385.5 Q 222.8 387.8 220.5 387 L 211.5 393 L 208 393 Q 209.1 395.7 206.5 395 L 200.5 399 L 198 399 Q 199.3 402 195.5 401 L 190.5 404 L 186.5 405 L 184.5 405 L 181.5 404 L 179.5 405 L 177.5 405 L 174.5 404 L 172.5 405 L 167.5 402 Q 166 404.5 164.5 401 L 162 401 Q 163.3 398 159.5 399 L 152 395 Q 153.3 391.7 148.5 393 L 145.5 390 L 138 387 L 137.5 385 L 136.5 386 L 133.5 383 L 119 376 L 118.5 374 L 117.5 375 L 114.5 372 L 100 365 L 99.5 363 Q 98 365.5 96.5 362 L 79.5 353 L 73.5 348 Q 72 350.5 70.5 347 Q 63.5 345 59.5 340 L 58.5 341 L 55.5 338 L 48 335 L 47.5 333 Q 46 335.5 44.5 332 L 41 331 Q 42.3 328 38.5 329 L 24.5 320 L 22 320 L 21.5 318 L 20.5 319 L 12.5 313 L 7 308.5 L 6 305.5 Q 9.1 303.8 7.5 302 L 9.5 303 L 15 299.5 L 14.5 298 L 16.5 299 L 22 295.5 L 21.5 294 L 23.5 295 L 27 292.5 L 26.5 291 L 28.5 292 L 34 288.5 L 33.5 287 L 35.5 288 L 41 284.5 L 40.5 283 L 42.5 284 L 48 280.5 L 47.5 279 L 49.5 280 L 53 277.5 L 52.5 276 L 54.5 277 L 60 273.5 L 59.5 272 L 61.5 273 L 67 269.5 L 66.5 268 L 68.5 269 L 74 265.5 L 73.5 264 Z " /></svg>